<svg
    xmlns="http://www.w3.org/2000/svg"
    xmlns:xlink="http://www.w3.org/1999/xlink"
    viewBox="0 0 512 512"
>
    <defs>
        <linearGradient
            id="bg"
            x1="50%"
            y1="0%"
            x2="50%"
            y2="100%"
        >
            <stop
                offset="0"
                stop-color="#2d3748"
            />
            <stop
                offset="1"
                stop-color="#1a202c"
            />
        </linearGradient>
    </defs>
    <circle
        cx="256"
        cy="256"
        r="240"
        style="fill:url(#bg);stroke:none;"
    />
    <path
        d="M169.431,309.1,457.655,196.479c6.405-2.6,11.9,6.064,5.49,9.53L320.406,296.973c-6.405,3.466-7.32,12.129-1.83,17.327l56.729,62.376c9.15,9.529-1.83,23.39-13.725,18.192L169.431,319.5C164.856,317.765,164.856,310.834,169.431,309.1Z"
        style="fill:#e2e8f0;stroke:none;"
    />
    <path
        d="M342.569,202.9,54.345,315.521c-6.405,2.6-11.895-6.064-5.49-9.529l142.739-90.965c6.405-3.465,7.32-12.128,1.83-17.326L136.7,135.325c-9.15-9.53,1.83-23.391,13.725-18.193L342.569,192.5C347.144,194.235,347.144,201.166,342.569,202.9Z"
        style="fill:#718096;stroke:none;"
    />
</svg>